# xmcd
#
# Track frame offsets: 
#        150
#        21691
#        41969
#        56227
#        71402
#        92789
#        113867
#        128508
#        157423
#        181523
#        209430
#        226028
#        243314
#
# Disc length: 3502 seconds
#
# Revision: 0
# Processed by: cddbd v1.5.2PL0 Copyright (c) Steve Scherf et al.
# Submitted via: ExactAudioCopy v0.99pb4
#
DISCID=b70dac0d
DTITLE=After Blues - Zobacz jak piêknie
DYEAR=2008
DGENRE=Blues
TTITLE0=Kilka pytañ
TTITLE1=Bluesada
TTITLE2=Ja mam bluesa
TTITLE3=G³owa do góry kolego
TTITLE4=Mój raj
TTITLE5=Ju¿ nie k³am
TTITLE6=Ameryka II
TTITLE7=Heysel
TTITLE8=Ostatni blues dla Sou
TTITLE9=Popatrz mamo
TTITLE10=Go go Johnny
TTITLE11=Kiedys lepiej musi byæ
TTITLE12=Zobacz jak piêknie
EXTD=
EXTT0=
EXTT1=
EXTT2=
EXTT3=
EXTT4=
EXTT5=
EXTT6=
EXTT7=
EXTT8=
EXTT9=
EXTT10=
EXTT11=
EXTT12=
PLAYORDER=
